<svg xmlns="http://www.w3.org/2000/svg" viewBox="0 0 23 23"><g fill="#f02fa1"><path d="M15.5 15H8.7c.6-.8 1-1.9 1.3-3h2.4c.3 0 .5-.2.5-.5s-.1-.5-.4-.5h-2.2c0-.1.1-.2.1-.4.6-2.2 1-3.6 2.1-3.6.6 0 1.4.6 1.6.9.2.2.5.2.7 0 .2-.2.2-.5 0-.7C14.7 7 13.7 6 12.5 6c-2 0-2.5 2.2-3.1 4.4 0 .2-.1.4-.2.6h-.7c-.3 0-.5.2-.5.5s.2.5.5.5H9c-.4 1.3-.9 2.5-1.8 3.1-.2.1-.2.3-.2.5s.3.4.5.4h8c.3 0 .5-.2.5-.5s-.2-.5-.5-.5z"/><path d="M11.5 0C5.2 0 0 5.2 0 11.5S5.2 23 11.5 23 23 17.8 23 11.5 17.8 0 11.5 0zm0 22C5.7 22 1 17.3 1 11.5S5.7 1 11.5 1 22 5.7 22 11.5 17.3 22 11.5 22z"/></g></svg>